<?xml version="1.0" standalone="no"?>
<!DOCTYPE svg PUBLIC "-//W3C//DTD SVG 20010904//EN"
 "http://www.w3.org/TR/2001/REC-SVG-20010904/DTD/svg10.dtd">
<svg version="1.0" xmlns="http://www.w3.org/2000/svg"
 width="120.000000pt" height="120.000000pt" viewBox="0 0 400.000000 400.000000"
 preserveAspectRatio="xMidYMid meet">

<g transform="translate(0.000000,300.000000) scale(0.100000,-0.100000)"
fill="#1976d2" stroke="none">
<path d="M0 1500 l0 -1500 1500 0 1500 0 0 1500 0 1500 -1500 0 -1500 0 0
-1500z m1496 805 c17 -23 18 -87 2 -103 -20 -20 -42 -14 -74 21 -16 18 -35 37
-42 41 -14 9 -67 -68 -57 -84 4 -7 26 -20 49 -29 22 -10 55 -33 72 -50 42 -43
73 -39 97 12 18 38 68 77 100 77 10 0 32 -7 50 -16 72 -37 129 -149 66 -129
-15 5 -19 1 -19 -14 0 -12 -5 -21 -10 -21 -6 0 -8 -11 -4 -25 4 -18 2 -25 -8
-25 -7 0 -19 -9 -26 -20 -10 -17 -8 -21 17 -34 15 -8 35 -30 44 -49 9 -18 28
-39 42 -45 14 -6 25 -16 25 -22 0 -30 75 15 90 54 9 25 -5 46 -31 46 -30 0
-25 44 6 58 37 17 40 16 75 -20 24 -26 30 -40 26 -63 -9 -60 -67 -200 -95
-229 -29 -28 -29 -28 -82 -16 -30 7 -79 25 -110 41 -49 25 -61 27 -87 17 -24
-9 -32 -20 -38 -52 -4 -23 -7 -48 -6 -56 2 -8 4 -35 7 -60 2 -25 5 -56 7 -70
3 -22 -1 -25 -34 -28 -20 -2 -58 3 -84 11 -43 12 -49 18 -66 63 -24 59 -18
127 13 160 16 17 19 29 14 58 -4 20 -3 36 1 36 5 1 28 5 52 9 25 5 61 5 84 -1
46 -10 133 4 164 27 18 13 18 15 1 47 -22 41 -128 167 -152 181 -10 5 -34 13
-54 18 -40 9 -51 0 -51 -43 0 -26 2 -27 33 -21 72 15 80 12 110 -46 15 -30 27
-63 27 -74 0 -16 -5 -18 -27 -12 -39 9 -136 16 -215 15 -66 -1 -68 0 -68 25 0
27 10 31 41 15 14 -8 19 -7 19 3 0 7 8 22 18 32 14 15 16 29 12 70 -11 96 -68
136 -144 100 -35 -17 -56 -14 -56 8 -1 7 -15 21 -33 32 -67 42 -34 120 76 175
56 29 69 31 140 28 64 -3 81 -7 93 -23z m-411 -192 c-87 -171 -68 -384 51
-549 205 -289 653 -289 858 0 118 165 138 373 52 549 -35 73 -13 56 27 -20 47
-90 67 -173 67 -274 0 -171 -49 -288 -170 -410 -117 -119 -237 -169 -405 -169
-168 0 -288 50 -405 169 -85 85 -132 165 -155 262 -19 83 -19 215 1 293 16 64
80 196 95 196 4 0 -3 -21 -16 -47z m777 -898 c9 -21 9 -29 -4 -42 -9 -9 -24
-13 -32 -10 -17 7 -22 37 -6 37 6 0 10 -7 10 -16 0 -8 5 -12 10 -9 16 10 12
42 -6 49 -30 12 -54 -12 -54 -54 0 -34 3 -40 23 -41 l22 -2 -22 -4 c-17 -3
-23 -11 -23 -31 0 -41 -26 -72 -60 -72 -23 0 -31 5 -36 24 -3 14 -3 30 1 35 8
14 35 14 35 0 0 -5 -4 -8 -9 -4 -18 10 -23 -17 -7 -33 25 -25 36 -1 36 76 0
59 -1 62 -24 62 -24 0 -41 23 -30 41 7 12 44 12 44 -1 0 -5 -7 -7 -15 -4 -8 4
-15 1 -15 -4 0 -24 23 -23 58 2 48 34 89 34 104 1z m-644 -111 c-3 -111 -5
-127 -22 -140 -44 -32 -101 -9 -94 38 3 22 38 40 38 19 0 -6 -7 -11 -16 -11
-20 0 -15 -29 8 -43 12 -8 21 -7 32 2 13 11 16 36 16 133 0 106 -2 119 -17
116 -9 -2 -18 -9 -21 -17 -3 -10 0 -12 12 -8 9 4 16 2 16 -3 0 -6 -9 -10 -20
-10 -15 0 -20 7 -20 25 0 23 4 25 46 25 l46 0 -4 -126z m222 90 c0 -8 -7 -14
-15 -14 -15 0 -21 21 -9 33 10 9 24 -2 24 -19z m480 5 c0 -12 -29 -24 -37 -16
-3 4 -3 13 0 21 6 16 37 11 37 -5z m70 -19 c0 -12 7 -20 18 -21 16 -1 16 -2
-1 -6 -15 -4 -17 -14 -15 -61 3 -49 6 -57 22 -54 11 2 15 -1 11 -7 -11 -18
-54 -12 -65 8 -5 11 -10 40 -10 65 0 30 -4 46 -12 47 -10 0 -10 2 0 6 6 2 12
13 12 24 0 12 7 19 20 19 13 0 20 -7 20 -20z m-700 -79 c0 -68 9 -80 36 -50
18 20 18 21 -1 35 -16 12 -17 14 -2 14 12 0 17 8 17 30 0 23 4 30 20 30 18 0
20 -7 20 -69 l0 -69 -55 -1 c-65 0 -75 11 -75 88 0 44 3 51 20 51 18 0 20 -7
20 -59z m150 -30 c0 -102 -10 -121 -65 -121 -25 0 -35 5 -40 20 -3 11 -3 24 0
30 8 13 45 13 45 0 0 -5 -7 -7 -15 -4 -10 4 -15 0 -15 -10 0 -9 7 -19 16 -23
30 -11 44 25 44 114 0 67 3 83 15 83 12 0 15 -17 15 -89z m70 30 c0 -68 9 -80
36 -50 18 20 18 21 -1 35 -16 12 -17 14 -2 14 12 0 17 8 17 30 0 23 4 30 20
30 18 0 20 -7 20 -69 l0 -69 -55 -1 c-65 0 -75 11 -75 88 0 44 3 51 20 51 18
0 20 -7 20 -59z m410 -11 c0 -63 -2 -70 -20 -70 -18 0 -20 7 -20 70 0 63 2 70
20 70 18 0 20 -7 20 -70z m-632 -222 l3 -68 187 0 c103 0 204 3 226 7 l38 6
-6 53 c-5 46 -4 53 12 58 11 4 86 2 168 -3 87 -5 197 -6 264 -1 69 5 119 5
124 0 6 -6 -6 -32 -28 -66 l-38 -56 51 -52 c28 -28 51 -57 51 -64 0 -17 -32
-22 -162 -25 l-118 -2 6 -45 c4 -32 1 -51 -9 -65 -15 -20 -27 -20 -539 -20
l-523 0 -3 63 -3 62 -94 0 c-62 0 -95 4 -95 11 0 6 18 36 40 68 22 31 40 61
40 66 0 6 -18 37 -40 70 -22 33 -40 63 -40 68 0 4 109 6 243 5 l242 -3 3 -67z"/>
<path d="M880 910 l55 -7 -45 -3 c-37 -2 -39 -4 -15 -7 43 -6 56 -23 20 -24
-29 -2 -29 -2 5 -9 l35 -7 -30 -3 -30 -3 35 -7 c23 -5 28 -8 13 -9 -35 -2 -27
-21 10 -22 30 -2 30 -2 5 -6 -34 -5 -37 -20 -5 -26 16 -3 13 -5 -10 -6 -18 0
-33 -5 -33 -11 0 -5 15 -11 33 -12 27 -1 26 -2 -13 -8 -30 -5 -37 -8 -20 -10
24 -2 24 -3 -5 -10 -26 -7 -22 -8 25 -10 35 -2 44 -5 26 -7 -16 -3 -35 -11
-43 -19 -12 -12 -7 -14 41 -14 l56 0 0 84 c0 82 1 84 28 95 20 8 221 51 240
51 1 0 2 5 2 10 0 6 -78 9 -217 8 -131 -1 -196 -4 -163 -8z"/>
<path d="M1760 902 c0 -18 33 -24 152 -31 153 -9 160 -14 151 -117 l-6 -74
119 2 119 2 -85 6 c-47 3 -67 7 -45 8 30 2 36 5 25 12 -12 8 -10 10 10 11 17
1 12 4 -15 9 l-40 7 35 3 c33 2 33 3 10 10 l-25 8 28 1 c15 1 27 6 27 12 0 8
-14 10 -45 6 -27 -4 -45 -3 -45 3 0 6 19 11 43 12 l42 1 -40 6 -40 5 45 6 45
7 -47 1 c-73 3 -70 22 4 23 40 1 52 4 33 7 -29 6 -29 6 10 12 38 7 36 7 -20 9
-71 3 -49 19 28 20 26 1 47 5 47 9 0 4 -42 4 -92 -1 -87 -7 -204 -4 -360 10
-44 3 -68 2 -68 -5z"/>
<path d="M1235 855 c-16 -8 -23 -14 -14 -15 8 0 24 7 35 15 23 18 18 18 -21 0z"/>
<path d="M1095 846 c-73 -14 -93 -25 -74 -37 21 -13 149 -9 189 5 l35 13 -44
8 c-30 5 -39 10 -30 16 19 12 2 11 -76 -5z"/>
<path d="M1760 841 c0 -4 19 -12 43 -19 50 -15 233 -12 230 3 -4 14 -166 26
-175 12 -5 -8 -20 -8 -52 0 -25 6 -46 7 -46 4z"/>
<path d="M1407 783 c-249 -2 -346 -6 -341 -14 4 -8 -3 -9 -25 -4 -20 4 -31 3
-31 -4 0 -6 20 -11 48 -11 37 -1 43 -3 29 -11 -10 -6 -31 -7 -47 -4 -19 4 -30
3 -30 -4 0 -6 14 -11 31 -11 19 0 28 -4 23 -11 -3 -6 -17 -8 -31 -4 -16 4 -22
2 -18 -5 3 -5 24 -10 46 -10 26 0 38 -4 34 -11 -4 -6 -22 -8 -46 -4 -25 4 -39
3 -39 -4 0 -6 12 -12 28 -12 l27 -1 -30 -7 c-29 -7 -29 -7 -7 -15 12 -4 31 -4
42 -1 11 4 20 2 20 -4 0 -6 -19 -11 -42 -12 -33 0 -38 -2 -23 -9 19 -8 19 -9
1 -9 -26 -1 -9 -18 24 -24 23 -4 22 -4 -5 -6 -30 -2 -29 -2 10 -16 59 -22 765
-21 845 0 30 8 71 15 90 16 l35 1 -30 8 -30 8 32 1 c17 0 34 5 37 10 3 5 -16
7 -42 5 l-47 -3 48 10 c52 12 66 32 15 22 -22 -4 -29 -3 -24 5 4 7 18 12 32
12 13 0 24 4 24 9 0 4 -24 7 -52 5 l-53 -4 50 14 c36 10 43 14 25 16 l-25 2
24 7 c14 4 26 12 29 19 3 9 -3 10 -23 2 -34 -13 -75 -13 -75 0 0 6 17 10 38
10 24 0 32 3 23 9 -10 6 -6 11 15 20 26 10 23 10 -21 5 -54 -6 -56 4 -3 16 20
5 -19 7 -102 7 -74 -1 -292 -3 -483 -4z m-91 -65 c-3 -13 -6 -29 -6 -35 0 -23
-30 -13 -40 13 -13 33 -13 34 4 34 8 0 17 -12 19 -27 4 -26 4 -26 6 5 0 17 6
32 12 32 7 0 9 -9 5 -22z m-158 -17 c9 -26 8 -28 -19 -29 -16 0 -29 4 -29 9 0
7 27 43 37 48 0 1 6 -12 11 -28z m92 -1 c0 -23 -4 -30 -20 -30 -14 0 -20 7
-20 23 0 27 7 37 27 37 8 0 13 -12 13 -30z m128 2 c9 -27 8 -29 -19 -29 -18 0
-29 6 -29 14 0 8 4 12 9 9 5 -3 11 3 14 14 7 27 13 25 25 -8z m100 0 c9 -27 8
-29 -19 -29 -18 0 -29 6 -29 14 0 8 4 12 9 9 5 -3 11 3 14 14 7 27 13 25 25
-8z m62 12 c0 -8 -4 -12 -10 -9 -5 3 -10 0 -10 -9 0 -8 6 -17 13 -19 7 -3 5
-6 -6 -6 -20 -1 -32 22 -23 44 7 20 36 19 36 -1z m64 -20 c5 -18 2 -21 -24
-22 -34 -1 -38 10 -12 37 19 20 27 17 36 -15z m71 6 c0 -18 -6 -26 -22 -28
-15 -2 -23 2 -23 11 0 9 -3 23 -6 32 -6 13 -1 16 22 13 23 -2 29 -8 29 -28z
m53 13 c-2 -10 5 -19 15 -21 15 -3 18 0 12 17 -5 15 -2 21 9 21 9 0 16 -6 17
-12 0 -10 2 -10 6 0 10 24 23 11 23 -24 0 -25 -3 -33 -12 -28 -7 5 -34 7 -61
6 -46 -1 -47 -1 -43 26 2 15 5 28 5 30 1 1 8 2 16 2 9 0 15 -7 13 -17z m122
-13 c0 -16 -4 -30 -10 -30 -5 0 -10 6 -10 14 0 8 -3 21 -6 30 -4 11 -1 16 10
16 11 0 16 -9 16 -30z m64 -6 c5 -18 2 -21 -24 -22 -34 -1 -38 10 -12 37 19
20 27 17 36 -15z"/>
<path d="M1651 704 c0 -11 3 -14 6 -6 3 7 2 16 -1 19 -3 4 -6 -2 -5 -13z"/>
<path d="M1998 553 c6 -2 18 -2 25 0 6 3 1 5 -13 5 -14 0 -19 -2 -12 -5z"/>
</g>
</svg>
